<svg xmlns="http://www.w3.org/2000/svg" viewBox="0 0 200 200">
  <!-- Background circle -->
  <circle cx="100" cy="100" r="90" fill="#4A56E2" />
  
  <!-- Music note elements -->
  <path d="M85,55 L85,125 Q85,140 70,140 Q55,140 55,125 Q55,110 70,110 Q75,110 85,115 L85,55" 
        fill="#FFFFFF" stroke="none" />
  <circle cx="70" cy="125" r="8" fill="#FF6978" />
  
  <!-- Neural network elements -->
  <circle cx="130" cy="60" r="10" fill="#FFFFFF" />
  <circle cx="160" cy="100" r="10" fill="#FFFFFF" />
  <circle cx="130" cy="140" r="10" fill="#FFFFFF" />
  
  <!-- Connecting lines -->
  <line x1="85" y1="75" x2="130" y2="60" stroke="#FFFFFF" stroke-width="2" />
  <line x1="85" y1="95" x2="160" y2="100" stroke="#FFFFFF" stroke-width="2" />
  <line x1="85" y1="115" x2="130" y2="140" stroke="#FFFFFF" stroke-width="2" />
  <line x1="130" y1="60" x2="160" y2="100" stroke="#FFFFFF" stroke-width="2" />
  <line x1="160" y1="100" x2="130" y2="140" stroke="#FFFFFF" stroke-width="2" />
  <line x1="130" y1="60" x2="130" y2="140" stroke="#FFFFFF" stroke-width="2" />
</svg> 